HIERARCHY
ROOT ui
{
	 OFFSET 0 0 0
	 CHANNELS 3 XPosition YPosition Z Position
	 EndSite
	 {
	 OFFSET 0 -1 0
	 }
}
ROOT li
{
	 OFFSET 0 0 0
	 CHANNELS 3 XPosition YPosition Z Position
	 EndSite
	 {
	 OFFSET 0 -1 0
	 }
}
ROOT ul
{
	 OFFSET 0 0 0
	 CHANNELS 3 XPosition YPosition Z Position
	 EndSite
	 {
	 OFFSET 0 -1 0
	 }
}
ROOT ll
{
	 OFFSET 0 0 0
	 CHANNELS 3 XPosition YPosition Z Position
	 EndSite
	 {
	 OFFSET 0 -1 0
	 }
}
ROOT tt
{
	 OFFSET 0 0 0
	 CHANNELS 3 XPosition YPosition Z Position
	 EndSite
	 {
	 OFFSET 0 -1 0
	 }
}
ROOT tb
{
	 OFFSET 0 0 0
	 CHANNELS 3 XPosition YPosition Z Position
	 EndSite
	 {
	 OFFSET 0 -1 0
	 }
}
ROOT td
{
	 OFFSET 0 0 0
	 CHANNELS 3 XPosition YPosition Z Position
	 EndSite
	 {
	 OFFSET 0 -1 0
	 }
}
ROOT v
{
	 OFFSET 0 0 0
	 CHANNELS 3 XPosition YPosition Z Position
	 EndSite
	 {
	 OFFSET 0 -1 0
	 }
}
ROOT bn
{
	 OFFSET 0 0 0
	 CHANNELS 3 XPosition YPosition Z Position
	 EndSite
	 {
	 OFFSET 0 -1 0
	 }
}
MOTION
Frames: 24
Frame Time: 0.002
-0.002951694965362549	7.910940051078796E-4	0		0.5740836181640625	-2.50524072265625	0		-1.07675537109375	-0.12877615356445313	0		-0.6737882690429687	-2.38627978515625	0		1.022810791015625	-0.6218318481445313	0		2.87565380859375	-0.09775391387939453	0		4.514822265625	0.19454771423339845	0		5.58181982421875	0.06098785400390625	0		-0.18046888732910157	5.93152294921875	0		
-0.0012651580572128297	8.377500176429748E-4	0		0.5912974853515625	-2.499397705078125	0		-1.0850059814453126	-0.12670796966552733	0		-0.6388154907226562	-2.391996337890625	0		0.9965455932617188	-0.6240612182617188	0		2.84790625	-0.11965542602539063	0		4.504400390625	0.19157461547851562	0		5.57785986328125	0.038650646209716796	0		-0.19493135070800782	5.92283935546875	0		
-0.0036715700626373292	-0.0020457220077514647	0		0.5663925170898437	-2.497730712890625	0		-1.083332763671875	-0.12685197448730468	0		-0.6408411254882812	-2.395986083984375	0		1.0431949462890624	-0.6297402954101563	0		2.860713623046875	-0.11235884094238281	0		4.50602001953125	0.1923659210205078	0		5.57906640625	0.04030063247680664	0		-0.1942705535888672	5.92284423828125	0		
-0.005145051956176758	-0.005963284969329834	0		0.5923131103515625	-2.50307861328125	0		-1.0758260498046874	-0.13312565612792968	0		-0.686651123046875	-2.38613623046875	0		1.0209281616210937	-0.628073974609375	0		2.868178955078125	-0.11997045135498047	0		4.5042021484375	0.17320797729492188	0		5.5743388671875	0.017985729217529296	0		-0.3270640869140625	5.90343115234375	0		
-0.02551992607116699	-0.001533352017402649	0		0.5444155883789062	-2.495009033203125	0		-1.0632825927734375	-0.1345098876953125	0		-0.6718309326171875	-2.39249365234375	0		1.0225750732421874	-0.6278981323242188	0		2.869166748046875	-0.09747299194335937	0		4.5170615234375	0.19174571228027343	0		5.58655078125	0.0674962615966797	0		-0.32650048828125	5.90338330078125	0		
9.476050138473511E-4	-0.0020300168991088867	0		0.5992255859375	-2.498948974609375	0		-1.064635009765625	-0.12664023590087892	0		-0.6658944702148437	-2.388693603515625	0		1.0073052978515624	-0.6194214477539063	0		2.876097900390625	-0.1261301040649414	0		4.51438818359375	0.18654365539550782	0		5.58467822265625	0.057039680480957033	0		-0.17840162658691405	5.93249462890625	0		
-0.019597196578979494	0.0013516459465026855	0		0.5501383056640625	-2.491922119140625	0		-1.0632210693359374	-0.1268446807861328	0		-0.64003173828125	-2.3842919921875	0		1.0256422119140625	-0.627619384765625	0		2.88277685546875	-0.1118082046508789	0		4.50575439453125	0.1874123992919922	0		5.5856982421875	0.058479701995849606	0		-0.19213433837890626	5.9226982421875	0		
0.0036538009643554688	-0.002125436067581177	0		0.6016732788085938	-2.50083837890625	0		-1.0659456787109376	-0.1299921875	0		-0.6773656005859375	-2.384715087890625	0		1.0211644287109376	-0.6214097900390625	0		2.8698818359375	-0.12315924072265624	0		4.509810546875	0.17599043273925782	0		5.57853173828125	0.02386951446533203	0		-0.19271389770507813	5.92362744140625	0		
-0.020114175796508788	-0.0017432940006256103	0		0.6032718505859375	-2.5008349609375	0		-1.0646990966796874	-0.13023622131347656	0		-0.6079456787109375	-2.39417138671875	0		1.043405517578125	-0.6257359008789063	0		2.85514892578125	-0.12152008819580078	0		4.51310498046875	0.18153578186035157	0		5.58755712890625	0.06109516143798828	0		-0.19236582946777345	5.9235126953125	0		
0.006024797916412353	-0.0023229269981384277	0		0.6047710571289062	-2.50086181640625	0		-1.123471435546875	-0.12638809967041015	0		-0.674301513671875	-2.385110595703125	0		1.0056258544921874	-0.6259764404296875	0		2.8830263671875	-0.13672470092773437	0		4.5142216796875	0.18206568908691406	0		5.59134033203125	0.07423181915283203	0		-0.3423932189941406	5.90715869140625	0		
-0.009948377609252929	-0.004149594783782959	0		0.595173095703125	-2.500718017578125	0		-1.0443702392578125	-0.12611856079101563	0		-0.655956787109375	-2.38765576171875	0		1.0378765869140625	-0.620552734375	0		2.880548095703125	-0.1124043960571289	0		4.51836767578125	0.188481689453125	0		5.59211767578125	0.07527912139892579	0		-0.17566606140136717	5.9309091796875	0		
0.01212079620361328	2.9504600167274477E-4	0		0.6085108032226563	-2.4990302734375	0		-1.0533349609375	-0.12423983001708984	0		-0.6675563354492188	-2.3816728515625	0		1.0318104248046875	-0.6274588623046875	0		2.879232666015625	-0.12916276550292968	0		4.51412353515625	0.17798834228515625	0		5.5898935546875	0.06423070526123047	0		-0.1915936584472656	5.92301123046875	0		
-0.016024824142456054	-0.002373224973678589	0		0.6086829833984375	-2.501134765625	0		-1.0605416259765625	-0.13141865539550782	0		-0.6005548095703125	-2.3931484375	0		1.0478248291015626	-0.62580322265625	0		2.875280517578125	-0.12191966247558594	0		4.515005859375	0.17834078979492188	0		5.58244140625	0.02906806755065918	0		-0.19141056823730468	5.922791015625	0		
-0.015193190574645996	-0.0025992588996887208	0		0.609799560546875	-2.50128955078125	0		-1.0596951904296874	-0.13176382446289062	0		-0.6584769897460937	-2.394375732421875	0		1.02474951171875	-0.6244747924804688	0		2.877908935546875	-0.13385008239746093	0		4.520671875	0.17054257202148437	0		5.584763671875	0.06775311279296875	0		-0.3246302185058594	5.90294970703125	0		
0.010567148208618165	-0.0032995901107788087	0		0.61082861328125	-2.501474853515625	0		-1.058917236328125	-0.13212611389160156	0		-0.6225187377929687	-2.3983232421875	0		1.0255797119140626	-0.6246162719726562	0		2.878064208984375	-0.11278070068359375	0		4.52141796875	0.17077140808105468	0		5.59173046875	0.06631652069091797	0		-0.3092964172363281	5.91339404296875	0		
0.004486601829528808	0.008550348281860352	0		0.5619279174804688	-2.492798095703125	0		-1.1181373291015626	-0.128433349609375	0		-0.6633058471679687	-2.382910888671875	0		1.0352896728515626	-0.6279502563476562	0		2.879404052734375	-0.1337877655029297	0		4.51724853515625	0.179027587890625	0		5.595189453125	0.07875675964355469	0		-0.19099356079101562	5.9219814453125	0		
0.015974502563476562	-9.396569728851318E-4	0		0.6136883544921875	-2.49994873046875	0		-1.053485595703125	-0.1299672393798828	0		-0.6186785278320313	-2.397046630859375	0		1.02705126953125	-0.6249940185546875	0		2.894277099609375	-0.12207513427734375	0		4.52273974609375	0.17105088806152344	0		5.584615234375	0.03113020324707031	0		-0.19087730407714842	5.92166796875	0		
-0.0124722318649292	-0.0037427699565887452	0		0.56155859375	-2.496279052734375	0		-1.130896240234375	-0.13099302673339844	0		-0.6657115478515625	-2.387568359375	0		1.051683349609375	-0.6266504516601562	0		2.896676513671875	-0.13418618774414062	0		4.5233271484375	0.17110830688476564	0		5.59316796875	0.06735543060302734	0		-0.1917486877441406	5.92235205078125	0		
0.0032410759925842287	0.004653391838073731	0		0.6142084350585938	-2.50248828125	0		-1.0563585205078125	-0.13371842956542968	0		-0.664973876953125	-2.387956298828125	0		1.0252391357421875	-0.6294326171875	0		2.87230029296875	-0.1308648223876953	0		4.52387109375	0.17111328125	0		5.58546923828125	0.031502094268798825	0		-0.3250067443847656	5.90234423828125	0		
-0.011398638725280762	-0.004438352108001709	0		0.5748847045898438	-2.50310107421875	0		-1.1257523193359376	-0.1289205322265625	0		-0.65343603515625	-2.3965498046875	0		1.028867919921875	-0.6257719116210938	0		2.892524169921875	-0.14837229919433595	0		4.50825537109375	0.16434861755371094	0		5.59689599609375	0.07951374053955078	0		-0.3087574462890625	5.90968408203125	0		
0.018129398345947265	-0.002320065021514893	0		0.6206521606445312	-2.496226806640625	0		-1.1112318115234374	-0.12760895538330078	0		-0.6467041625976563	-2.39106982421875	0		1.0383326416015626	-0.6292389526367187	0		2.896467041015625	-0.12262372589111328	0		4.51872314453125	0.16407879638671874	0		5.597248046875	0.07945545196533203	0		-0.308608154296875	5.91129052734375	0		
-0.017242664337158202	0.007916312217712402	0		0.595279541015625	-2.494129638671875	0		-1.0467686767578126	-0.12817613220214844	0		-0.6240725708007813	-2.3888798828125	0		1.0538487548828126	-0.6278320922851562	0		2.862648681640625	-0.13825634765625	0		4.52042333984375	0.1789232177734375	0		5.58823095703125	0.06932926940917969	0		-0.19130117797851562	5.92084375	0		
0.01899900245666504	-0.0031128149032592775	0		0.6177057495117187	-2.501884033203125	0		-1.06037353515625	-0.13039201354980468	0		-0.6625384521484375	-2.3896396484375	0		1.0303236083984375	-0.626765380859375	0		2.87905712890625	-0.13978953552246093	0		4.5256953125	0.17066845703125	0		5.5868408203125	0.031129806518554688	0		-0.19118858337402345	5.92042919921875	0		
-0.009650288581848144	-0.006027537822723389	0		0.5932828979492187	-2.498839599609375	0		-1.054056396484375	-0.135965576171875	0		-0.5921369018554687	-2.397301513671875	0		1.098621337890625	-0.6353089599609375	0		2.885340087890625	-0.14716864013671874	0		4.53096337890625	0.16338780212402343	0		5.5871328125	0.030874250411987304	0		-0.19108221435546874	5.92000146484375	0		
